<?xml version="1.0" encoding="utf-8"?>
<!-- Generator: Adobe Illustrator 24.1.1, SVG Export Plug-In . SVG Version: 6.00 Build 0)  -->
<svg version="1.1" id="Layer_1" xmlns="http://www.w3.org/2000/svg" xmlns:xlink="http://www.w3.org/1999/xlink" x="0px" y="0px"
	 viewBox="0 0 48 48" style="enable-background:new 0 0 48 48;" xml:space="preserve">
<style type="text/css">
	.st0{fill:none;stroke:#9FD356;stroke-width:2;stroke-miterlimit:10;}
	.st1{fill:#9FD356;}
</style>
<g id="_01_-_PS">
	<path class="st0" d="M10,7h28c1.7,0,3,1.3,3,3v28c0,1.7-1.3,3-3,3H10c-1.7,0-3-1.3-3-3V10C7,8.4,8.4,7,10,7z"/>
	<path class="st1" d="M18.2,28.6l-1.5,4.3h-3.1l5.8-16.7h3.9l6,16.7H26l-1.5-4.3C24.5,28.6,18.2,28.6,18.2,28.6z M23.8,26
		c-1.3-3.8-2.1-6.1-2.5-7.5l0,0C20.9,20,20,22.7,18.9,26H23.8z"/>
	<path class="st1" d="M31.4,15.2h3v2.9h-3L31.4,15.2z M31.4,20.4h3v12.4h-3L31.4,20.4z"/>
</g>
</svg>
