<?xml version="1.0" encoding="utf-8"?>
<!-- Generator: Adobe Illustrator 24.1.1, SVG Export Plug-In . SVG Version: 6.00 Build 0)  -->
<svg version="1.1" id="Layer_1" xmlns="http://www.w3.org/2000/svg" xmlns:xlink="http://www.w3.org/1999/xlink" x="0px" y="0px"
	 viewBox="0 0 48 48" style="enable-background:new 0 0 48 48;" xml:space="preserve">
<style type="text/css">
	.st0{display:none;}
	.st1{display:inline;fill:none;stroke:#D8315B;stroke-width:2;stroke-miterlimit:10;}
	.st2{display:inline;fill:#D8315B;}
	.st3{fill:#9FD356;}
</style>
<g id="_01_-_PS" class="st0">
	<path class="st1" d="M10,7h28c1.7,0,3,1.3,3,3v28c0,1.7-1.3,3-3,3H10c-1.7,0-3-1.3-3-3V10C7,8.4,8.4,7,10,7z"/>
	<path class="st2" d="M11.8,15.5h6.7c3.4,0,5.8,1.9,5.8,5c0,3.5-2.6,5.2-5.9,5.2h-3.5v6.4h-3.1C11.8,32.1,11.8,15.5,11.8,15.5z
		 M14.9,23.2H18c1.9,0,3-0.8,3-2.6S19.8,18,18,18h-3.1V23.2z"/>
	<path class="st2" d="M28.6,28.5c0.3,1.1,1.4,1.9,2.6,1.7c1.5,0,2-0.6,2-1.4s-0.5-1.3-2.5-1.8c-3.9-1-4.6-2.1-4.6-3.9
		s1.3-3.7,4.8-3.7s4.8,2,5,3.7H33c-0.1-0.6-0.5-1.5-2.3-1.5c-1.3,0-1.8,0.6-1.8,1.3s0.4,1.1,2.5,1.6c4,0.9,4.7,2.3,4.7,4.1
		c0,2.1-1.6,3.9-5.2,3.9s-5.1-1.8-5.4-4L28.6,28.5z"/>
</g>
<g id="layer2" transform="translate(-4.1490869,-125.55907)">
	<path id="path21" class="st3" d="M28.6,141.9c0,0,3.1-0.4,3.8,1.2c0.7,1.7,1,2.7-0.5,3.5s-10.3,4.5-10.3,4.5s-6.6,2.7-10.8-2.8
		s0.4-9.6,0.4-9.6s1.5-1.5,5.1-3s9.8-3.7,9.8-3.7s5.8-1.3,10,0.3s7,4.9,7,4.9s3.1,3.4,3,7.6c-0.1,4.3-1.3,5.1-1.3,5.1
		s-2.2,4.8-7.7,6.8s-6.8,2.8-6.8,2.8l2.4,3.8c0,0,1.4,2.8-1.4,3.6s-4.2-1.2-4.2-1.2l-5.8-8.5l14.4-6.4c0,0,4.6-3.2,4.2-6.5
		c-0.4-3.2-2.2-5.3-4.4-6.6c-2.7-1.7-5-1.2-5-1.2s-2.6,0.4-5.6,1.7c-3.4,1.3-7.6,3.2-7.6,3.2s-2.6,0.8-1.8,2.8c0.7,2,3,1.9,3,1.9
		L28.6,141.9z"/>
</g>
</svg>
