<?xml version="1.0" encoding="utf-8"?>
<!-- Generator: Adobe Illustrator 24.1.1, SVG Export Plug-In . SVG Version: 6.00 Build 0)  -->
<svg version="1.1" id="Layer_1" xmlns="http://www.w3.org/2000/svg" xmlns:xlink="http://www.w3.org/1999/xlink" x="0px" y="0px"
	 viewBox="0 0 100.4 100.4" style="enable-background:new 0 0 100.4 100.4;" xml:space="preserve">
<style type="text/css">
	.st0{fill:#9FD356;}
</style>
<g>
	<path class="st0" d="M92,53.6c-3.4-2.8-8.1-3-12.7-3.2c-4.1-0.2-8-0.4-10.5-2.4c0,0,0,0,0,0c-0.6-0.5-0.8-0.9-0.8-1.1
		c0.1-0.8,2.4-2.3,4.1-3.3c3.7-2.3,8.3-5.2,8.5-10.1c0.2-4.5-3.5-9.6-11.3-15.6c0,0-0.1-0.1-0.1-0.1c-9.9-7.7-21.5-10.7-32.7-8.6
		c-10.9,2-20.4,8.6-26.1,18c-11,18.2-2.6,43.5,18.7,56.4c8.8,5.3,18.5,7.9,27.7,7.9c13.7,0,26.2-5.7,32.6-16.3
		C93.2,69,97.1,57.8,92,53.6z M86.9,73.6C76.9,90,51.2,93.4,30.7,81C10.8,68.9,2.8,45.5,13,28.7C18.2,20,27,14,37,12.1
		c2.1-0.4,4.2-0.6,6.3-0.6c8.3,0,16.6,2.9,23.9,8.6c0,0,0.1,0,0.1,0.1c0,0,0,0,0.1,0c6.9,5.3,10.4,9.7,10.2,13.1
		c-0.2,3.3-3.8,5.6-7.1,7.7c-2.9,1.8-5.3,3.3-5.5,5.7c-0.1,1.3,0.6,2.5,1.9,3.6c3.2,2.7,7.8,2.9,12.3,3.1c4.3,0.2,8.3,0.4,10.9,2.5
		C93.3,58.6,90.3,68,86.9,73.6z"/>
	<path class="st0" d="M56.5,36.5c1.8,1.1,3.8,1.7,5.7,1.7c0.7,0,1.4-0.1,2.1-0.2c1.8-0.4,3.1-1.4,4-2.8c2.1-3.4,0.2-8.4-4.2-11.1
		c-2.5-1.5-5.4-2.1-7.8-1.5c-1.8,0.4-3.1,1.4-4,2.8c-0.9,1.4-1.1,3.1-0.6,4.8C52.2,32.7,54,35,56.5,36.5z M54.8,27
		c0.5-0.9,1.5-1.3,2.1-1.4c0.4-0.1,0.9-0.2,1.3-0.2c1.4,0,2.8,0.4,4.2,1.3c0,0,0,0,0,0c2.9,1.8,4.4,5,3.2,7
		c-0.5,0.9-1.5,1.3-2.1,1.4c-1.7,0.4-3.7,0-5.5-1.1c-1.8-1.1-3.1-2.7-3.5-4.4C54.3,28.9,54.2,27.9,54.8,27z"/>
	<path class="st0" d="M66.2,66C66.2,66,66.2,66,66.2,66c-1.9-1.2-4.2-1.5-6.4-1c-2.2,0.5-4,1.9-5.2,3.8c-1.2,1.9-1.5,4.2-1,6.3
		c0.5,2.2,1.9,4,3.8,5.2c1.4,0.8,2.9,1.2,4.3,1.2c2.8,0,5.6-1.4,7.2-4c1.2-1.9,1.5-4.2,1-6.4C69.5,69,68.1,67.1,66.2,66z M66.5,76
		c-1.6,2.6-4.9,3.4-7.4,1.8c-1.2-0.8-2.1-1.9-2.5-3.4c-0.3-1.4-0.1-2.8,0.6-4.1c0.7-1.2,1.9-2.1,3.3-2.4c0.4-0.1,0.9-0.2,1.3-0.2
		c1,0,1.9,0.3,2.8,0.8c1.2,0.8,2.1,1.9,2.5,3.3C67.4,73.3,67.2,74.7,66.5,76z"/>
	<path class="st0" d="M40.2,57.6c-1.9-1.2-4.2-1.5-6.4-1c-2.2,0.5-4,1.9-5.2,3.8c-1.2,1.9-1.5,4.2-1,6.4c0.5,2.2,1.9,4,3.8,5.2
		c1.3,0.8,2.8,1.2,4.3,1.2c0.7,0,1.4-0.1,2-0.2c2.2-0.5,4-1.9,5.2-3.8c1.2-1.9,1.5-4.2,1-6.3C43.4,60.6,42.1,58.8,40.2,57.6z
		 M40.4,67.6c-0.8,1.2-1.9,2.1-3.3,2.5c-1.4,0.3-2.9,0.1-4.1-0.6c-1.2-0.8-2.1-1.9-2.5-3.3c-0.3-1.4-0.1-2.9,0.6-4.1
		c0.7-1.2,1.9-2.1,3.3-2.4c0.4-0.1,0.9-0.2,1.3-0.2c1,0,1.9,0.3,2.8,0.8c0,0,0,0,0,0c1.2,0.8,2.1,1.9,2.5,3.3
		C41.4,64.9,41.2,66.4,40.4,67.6z"/>
	<path class="st0" d="M31.8,46.3c1.2-1.9,1.5-4.2,1-6.4c-0.5-2.2-1.9-4-3.8-5.2c-1.9-1.2-4.2-1.5-6.4-1c-2.2,0.5-4,1.9-5.2,3.8
		c-2.4,4-1.1,9.1,2.8,11.5c1.3,0.8,2.8,1.2,4.3,1.2c0.7,0,1.4-0.1,2-0.2C28.8,49.6,30.6,48.2,31.8,46.3z M29.2,44.7
		c-0.8,1.2-1.9,2.1-3.3,2.5c-1.4,0.3-2.9,0.1-4.1-0.6c-2.5-1.6-3.4-4.9-1.8-7.4c0.7-1.2,1.9-2.1,3.3-2.5c0.4-0.1,0.9-0.2,1.3-0.2
		c1,0,1.9,0.3,2.8,0.8l0,0c1.2,0.8,2.1,1.9,2.5,3.3C30.2,42.1,29.9,43.5,29.2,44.7z"/>
</g>
</svg>
