<?xml version="1.0" encoding="utf-8"?>
<!-- Generator: Adobe Illustrator 24.1.1, SVG Export Plug-In . SVG Version: 6.00 Build 0)  -->
<svg version="1.1" id="Слой_2" xmlns="http://www.w3.org/2000/svg" xmlns:xlink="http://www.w3.org/1999/xlink" x="0px" y="0px"
	 viewBox="0 0 100 100" style="enable-background:new 0 0 100 100;" xml:space="preserve">
<style type="text/css">
	.st0{fill:#9FD356;}
</style>
<path class="st0" d="M91.5,56H89c-0.5-15.4-9.3-28.3-22.4-34H83v2.5c0,0.8,0.7,1.5,1.5,1.5s1.5-0.7,1.5-1.5v-8
	c0-0.8-0.7-1.5-1.5-1.5S83,15.7,83,16.5V19H56v-2.5c0-0.8-0.7-1.5-1.5-1.5h-8c-0.8,0-1.5,0.7-1.5,1.5V19H18v-2.5
	c0-0.8-0.7-1.5-1.5-1.5c-0.8,0-1.5,0.7-1.5,1.5v8c0,0.8,0.7,1.5,1.5,1.5c0.8,0,1.5-0.7,1.5-1.5V22h16.3c-14,6-23.2,19.7-23.3,35H8.5
	C7.7,57,7,57.7,7,58.5l0,0v8C7,67.3,7.7,68,8.5,68h8c0.8,0,1.5-0.7,1.5-1.5v-8c0-0.8-0.7-1.5-1.5-1.5l0,0H14
	c0.2-17.7,13.4-32.6,31-34.9v2.4c0,0.8,0.7,1.5,1.5,1.5h2.6L33.5,65.5c-0.1,0.3-0.1,0.7,0,1.1l5.6,15.2L39,91.5
	c0,0.8,0.7,1.5,1.5,1.5c0,0,0,0,0,0h19c0.8,0,1.5-0.7,1.5-1.5v-9.7l6.8-15.2c0.2-0.4,0.2-0.8,0-1.2L51.9,26h2.6
	c0.8,0,1.5-0.7,1.5-1.5v-2.4C73,24.5,85.4,38.4,86,56h-2.5c-0.8,0-1.5,0.7-1.5,1.5v8c0,0.8,0.7,1.5,1.5,1.5h8c0.8,0,1.5-0.7,1.5-1.5
	v-8C93,56.7,92.3,56,91.5,56z M15,65h-5v-5h5V65z M42,90l0.1-7H58v7H42z M58.5,80H41.6l-5.1-13.9L49,34.4v27.1
	c0,0.8,0.7,1.5,1.5,1.5s1.5-0.7,1.5-1.5V34.2L64.8,66L58.5,80z M53,23h-5v-5h5V23z M90,64h-5v-5h5V64z"/>
</svg>
